<svg version="1" xmlns="http://www.w3.org/2000/svg" width="933.333" height="933.333" viewBox="0 0 700.000000 700.000000"><path d="M318 1c-84.1 7.8-158.1 42.1-216 100C23.4 179.4-12.5 288.4 4.1 398.3c23.4 156.1 151.3 277.1 308.8 292.2 17.9 1.7 46.6 1.9 63.1.5 108.6-9.7 205.6-69.3 264-162 9.1-14.5 24.4-45.7 30.5-62 8.8-23.7 15.3-50 19-77.1 2.2-16.2 3-53.1 1.6-71.4-6.6-82.5-41.7-158.3-100.5-217.1C534.2 45.1 465.2 11.9 384 2 372.3.6 329.6-.1 318 1zm58.8 184.2c1.5 3 2.4 6.7 2.5 10.3l.2 5.5H474c52 .1 96.3.4 98.5.8 2.4.5 4.1 1.3 4.3 2.3.4 2.3-7 11.3-12.6 15.4-8.9 6.4-14.7 7.6-42.7 8.5-13.7.5-48.4 1.1-77 1.5-28.6.3-58.9.8-67.3 1.1l-15.3.6-9.1 13.7c-66.1 98.7-188.5 265.9-195.5 266.9-4 .6-11.3-11.8-11.3-19.3 0-5.6 2.3-9.9 14-27.6 32-47.8 119.6-168.2 163.3-224.2 3.8-4.9 6.7-9.1 6.5-9.3-.3-.2-38.5.2-85 .8-110.1 1.5-116.7 1.1-127.8-8.9-5.4-4.9-6.3-7.9-2.7-9.2 6.2-2.3 66.1-5.7 190.2-10.6 20.4-.8 39.7-1.5 43-1.5h6l8.9-11.1c5.7-7.1 9.4-10.9 10.5-10.7.9.2 2.7 2.4 3.9 5zm111.4 183.5c2.9 3.3 5 9.8 5.1 15.9.1 5.4-.4 7-5 15.5-2.8 5.2-9.3 16-14.5 23.9-14.8 22.8-15.2 23.6-8 15.9 18.6-20 63.8-55.5 69.6-54.7 3.2.5 6.6 8.1 6.6 14.5s-1.9 10.5-13.1 28c-9.6 14.8-12.9 21.6-12.9 26.3 0 4.7 1.5 6 6.9 6 11-.1 26.5-11.8 46.3-34.8 6.1-7.1 8.3-9 9.3-8.2 1.9 1.6 2.6 7 1.5 10.9-2.3 7.9-30.4 38.4-44.2 47.9-22.9 15.7-42.5 15.9-48.4.7-4.7-12.4 3.5-34.1 20.8-54.8 2.2-2.6 3.6-4.7 3.1-4.7s-6.3 4.4-12.9 9.7c-13.7 11.2-41.7 38.3-54.1 52.5-4.6 5.3-9.3 10-10.4 10.3-2.5.8-5.3-1.3-9.9-7.4-5.1-6.7-5.8-11.5-3.1-20.1 2.9-9.1 18.2-35 30.1-50.8 1.7-2.3 2.9-4.2 2.6-4.2-1.8 0-37.5 32-63.4 56.9-10.7 10.2-19.7 18.7-20.2 18.9-2.9 1.1-9.1-11.8-9.4-19.5l-.1-4.3h-5.3c-2.9 0-6.8-.7-8.8-1.5l-3.5-1.4-3.7 4.2c-10.3 11.8-20.6 19.5-32.2 24.1-10 3.9-21.8 4.2-29.6.8-11.2-5-17.5-15.1-18.2-29.3-1.5-29.6 20.9-62.6 52.9-77.8 10.8-5.2 18.2-7.1 29.4-7.8 9-.5 20.1 1.3 23.1 3.8 2 1.6.6 3.7-2.9 4.5-5.6 1.2-17 6.6-25.2 12-23.5 15.3-40.6 41.3-39.3 59.6.6 8 2.9 10.3 10.2 10.3 6.7-.1 14.2-3.7 21.4-10.2l5.3-4.8-.9-5.7c-2.4-15.1 4.6-31.9 17.2-41 4.9-3.5 11.9-4 13.6-.9 2.8 5.3-.3 21.2-6.9 35.6-3.7 7.9-3.8 8.5-2 9 2.6.9 7.5-.3 13-3 3.9-2 7.9-6.6 26.6-30.7 12.1-15.6 23.8-30.9 26.2-34.1 2.3-3.1 4.7-5.7 5.4-5.7 2 0 6.4 5 8.1 9.2 3.7 8.7 2 13-14 36.6l-10.6 15.7 12.8-12.5c15.4-14.9 31.7-29.4 47.3-41.9 12-9.5 15.2-10.8 18.3-7.4z"/></svg>